<svg xmlns="http://www.w3.org/2000/svg" width="760" height="430" viewBox="0 0 760 430">
<rect width="100%" height="100%" fill="#fbfbf8"/>
<text x="82" y="32" font-family="Arial" font-size="22" font-weight="700" fill="#202124">Conversion Rate by Experiment Group</text>
<text x="18" y="215.0" transform="rotate(-90 18 215.0)" font-family="Arial" font-size="13" fill="#5f6368">Conversion rate</text>
<line x1="82" y1="358" x2="722" y2="358" stroke="#9aa0a6" stroke-width="1"/>
<line x1="82" y1="58" x2="82" y2="358" stroke="#9aa0a6" stroke-width="1"/>
<rect x="155.6" y="103.8" width="172.8" height="254.2" rx="4" fill="#2f6f73"/>
<text x="242.0" y="93.8" text-anchor="middle" font-family="Arial" font-size="16" font-weight="700" fill="#202124">12.04%</text>
<text x="242.0" y="388" text-anchor="middle" font-family="Arial" font-size="15" fill="#202124">Control: old page</text>
<rect x="475.6" y="107.1" width="172.8" height="250.9" rx="4" fill="#b45309"/>
<text x="562.0" y="97.1" text-anchor="middle" font-family="Arial" font-size="16" font-weight="700" fill="#202124">11.88%</text>
<text x="562.0" y="388" text-anchor="middle" font-family="Arial" font-size="15" fill="#202124">Treatment: new page</text>
<line x1="77" y1="358.0" x2="82" y2="358.0" stroke="#9aa0a6" stroke-width="1"/>
<text x="70" y="362.0" text-anchor="end" font-family="Arial" font-size="12" fill="#5f6368">0.0%</text>
<line x1="82" y1="358.0" x2="722" y2="358.0" stroke="#eceff1" stroke-width="1"/>
<line x1="77" y1="283.0" x2="82" y2="283.0" stroke="#9aa0a6" stroke-width="1"/>
<text x="70" y="287.0" text-anchor="end" font-family="Arial" font-size="12" fill="#5f6368">3.6%</text>
<line x1="82" y1="283.0" x2="722" y2="283.0" stroke="#eceff1" stroke-width="1"/>
<line x1="77" y1="208.0" x2="82" y2="208.0" stroke="#9aa0a6" stroke-width="1"/>
<text x="70" y="212.0" text-anchor="end" font-family="Arial" font-size="12" fill="#5f6368">7.1%</text>
<line x1="82" y1="208.0" x2="722" y2="208.0" stroke="#eceff1" stroke-width="1"/>
<line x1="77" y1="133.0" x2="82" y2="133.0" stroke="#9aa0a6" stroke-width="1"/>
<text x="70" y="137.0" text-anchor="end" font-family="Arial" font-size="12" fill="#5f6368">10.7%</text>
<line x1="82" y1="133.0" x2="722" y2="133.0" stroke="#eceff1" stroke-width="1"/>
<line x1="77" y1="58.0" x2="82" y2="58.0" stroke="#9aa0a6" stroke-width="1"/>
<text x="70" y="62.0" text-anchor="end" font-family="Arial" font-size="12" fill="#5f6368">14.2%</text>
<line x1="82" y1="58.0" x2="722" y2="58.0" stroke="#eceff1" stroke-width="1"/>
</svg>