<svg xmlns="http://www.w3.org/2000/svg" width="860" height="430" viewBox="0 0 860 430">
<rect width="100%" height="100%" fill="#fbfbf8"/>
<text x="76" y="32" font-family="Arial" font-size="22" font-weight="700" fill="#202124">Daily Conversion Rate During the Experiment</text>
<line x1="76" y1="352" x2="824" y2="352" stroke="#9aa0a6" stroke-width="1"/>
<line x1="76" y1="58" x2="76" y2="352" stroke="#9aa0a6" stroke-width="1"/>
<line x1="76" y1="352.0" x2="824" y2="352.0" stroke="#eceff1" stroke-width="1"/>
<text x="64" y="356.0" text-anchor="end" font-family="Arial" font-size="12" fill="#5f6368">9.8%</text>
<line x1="76" y1="278.5" x2="824" y2="278.5" stroke="#eceff1" stroke-width="1"/>
<text x="64" y="282.5" text-anchor="end" font-family="Arial" font-size="12" fill="#5f6368">10.8%</text>
<line x1="76" y1="205.0" x2="824" y2="205.0" stroke="#eceff1" stroke-width="1"/>
<text x="64" y="209.0" text-anchor="end" font-family="Arial" font-size="12" fill="#5f6368">11.8%</text>
<line x1="76" y1="131.5" x2="824" y2="131.5" stroke="#eceff1" stroke-width="1"/>
<text x="64" y="135.5" text-anchor="end" font-family="Arial" font-size="12" fill="#5f6368">12.8%</text>
<line x1="76" y1="58.0" x2="824" y2="58.0" stroke="#eceff1" stroke-width="1"/>
<text x="64" y="62.0" text-anchor="end" font-family="Arial" font-size="12" fill="#5f6368">13.7%</text>
<path d="M 76.0 146.2 L 110.0 233.7 L 144.0 173.4 L 178.0 163.6 L 212.0 222.2 L 246.0 180.3 L 280.0 195.9 L 314.0 190.3 L 348.0 240.7 L 382.0 196.1 L 416.0 172.4 L 450.0 210.6 L 484.0 137.4 L 518.0 184.0 L 552.0 174.0 L 586.0 166.3 L 620.0 151.9 L 654.0 188.1 L 688.0 223.0 L 722.0 143.5 L 756.0 193.9 L 790.0 145.5 L 824.0 202.5" fill="none" stroke="#2f6f73" stroke-width="3"/>
<circle cx="76.0" cy="146.2" r="3" fill="#2f6f73"/>
<circle cx="110.0" cy="233.7" r="3" fill="#2f6f73"/>
<circle cx="144.0" cy="173.4" r="3" fill="#2f6f73"/>
<circle cx="178.0" cy="163.6" r="3" fill="#2f6f73"/>
<circle cx="212.0" cy="222.2" r="3" fill="#2f6f73"/>
<circle cx="246.0" cy="180.3" r="3" fill="#2f6f73"/>
<circle cx="280.0" cy="195.9" r="3" fill="#2f6f73"/>
<circle cx="314.0" cy="190.3" r="3" fill="#2f6f73"/>
<circle cx="348.0" cy="240.7" r="3" fill="#2f6f73"/>
<circle cx="382.0" cy="196.1" r="3" fill="#2f6f73"/>
<circle cx="416.0" cy="172.4" r="3" fill="#2f6f73"/>
<circle cx="450.0" cy="210.6" r="3" fill="#2f6f73"/>
<circle cx="484.0" cy="137.4" r="3" fill="#2f6f73"/>
<circle cx="518.0" cy="184.0" r="3" fill="#2f6f73"/>
<circle cx="552.0" cy="174.0" r="3" fill="#2f6f73"/>
<circle cx="586.0" cy="166.3" r="3" fill="#2f6f73"/>
<circle cx="620.0" cy="151.9" r="3" fill="#2f6f73"/>
<circle cx="654.0" cy="188.1" r="3" fill="#2f6f73"/>
<circle cx="688.0" cy="223.0" r="3" fill="#2f6f73"/>
<circle cx="722.0" cy="143.5" r="3" fill="#2f6f73"/>
<circle cx="756.0" cy="193.9" r="3" fill="#2f6f73"/>
<circle cx="790.0" cy="145.5" r="3" fill="#2f6f73"/>
<circle cx="824.0" cy="202.5" r="3" fill="#2f6f73"/>
<path d="M 76.0 188.6 L 110.0 233.9 L 144.0 212.6 L 178.0 224.9 L 212.0 161.9 L 246.0 215.9 L 280.0 182.1 L 314.0 202.0 L 348.0 140.5 L 382.0 224.2 L 416.0 170.2 L 450.0 252.7 L 484.0 193.2 L 518.0 236.3 L 552.0 193.8 L 586.0 133.7 L 620.0 152.0 L 654.0 208.4 L 688.0 204.9 L 722.0 219.6 L 756.0 202.5 L 790.0 179.8 L 824.0 175.0" fill="none" stroke="#b45309" stroke-width="3"/>
<circle cx="76.0" cy="188.6" r="3" fill="#b45309"/>
<circle cx="110.0" cy="233.9" r="3" fill="#b45309"/>
<circle cx="144.0" cy="212.6" r="3" fill="#b45309"/>
<circle cx="178.0" cy="224.9" r="3" fill="#b45309"/>
<circle cx="212.0" cy="161.9" r="3" fill="#b45309"/>
<circle cx="246.0" cy="215.9" r="3" fill="#b45309"/>
<circle cx="280.0" cy="182.1" r="3" fill="#b45309"/>
<circle cx="314.0" cy="202.0" r="3" fill="#b45309"/>
<circle cx="348.0" cy="140.5" r="3" fill="#b45309"/>
<circle cx="382.0" cy="224.2" r="3" fill="#b45309"/>
<circle cx="416.0" cy="170.2" r="3" fill="#b45309"/>
<circle cx="450.0" cy="252.7" r="3" fill="#b45309"/>
<circle cx="484.0" cy="193.2" r="3" fill="#b45309"/>
<circle cx="518.0" cy="236.3" r="3" fill="#b45309"/>
<circle cx="552.0" cy="193.8" r="3" fill="#b45309"/>
<circle cx="586.0" cy="133.7" r="3" fill="#b45309"/>
<circle cx="620.0" cy="152.0" r="3" fill="#b45309"/>
<circle cx="654.0" cy="208.4" r="3" fill="#b45309"/>
<circle cx="688.0" cy="204.9" r="3" fill="#b45309"/>
<circle cx="722.0" cy="219.6" r="3" fill="#b45309"/>
<circle cx="756.0" cy="202.5" r="3" fill="#b45309"/>
<circle cx="790.0" cy="179.8" r="3" fill="#b45309"/>
<circle cx="824.0" cy="175.0" r="3" fill="#b45309"/>
<text x="76.0" y="380" text-anchor="middle" font-family="Arial" font-size="11" fill="#5f6368">01-02</text>
<text x="178.0" y="380" text-anchor="middle" font-family="Arial" font-size="11" fill="#5f6368">01-05</text>
<text x="280.0" y="380" text-anchor="middle" font-family="Arial" font-size="11" fill="#5f6368">01-08</text>
<text x="382.0" y="380" text-anchor="middle" font-family="Arial" font-size="11" fill="#5f6368">01-11</text>
<text x="484.0" y="380" text-anchor="middle" font-family="Arial" font-size="11" fill="#5f6368">01-14</text>
<text x="586.0" y="380" text-anchor="middle" font-family="Arial" font-size="11" fill="#5f6368">01-17</text>
<text x="688.0" y="380" text-anchor="middle" font-family="Arial" font-size="11" fill="#5f6368">01-20</text>
<text x="790.0" y="380" text-anchor="middle" font-family="Arial" font-size="11" fill="#5f6368">01-23</text>
<text x="824.0" y="380" text-anchor="middle" font-family="Arial" font-size="11" fill="#5f6368">01-24</text>
<rect x="630" y="54" width="14" height="14" fill="#2f6f73"/>
<text x="652" y="66" font-family="Arial" font-size="13" fill="#202124">Control</text>
<rect x="720" y="54" width="14" height="14" fill="#b45309"/>
<text x="742" y="66" font-family="Arial" font-size="13" fill="#202124">Treatment</text>
</svg>